<svg version="1.1" id="Layer_1" xmlns="http://www.w3.org/2000/svg" xmlns:xlink="http://www.w3.org/1999/xlink" x="0px" y="0px" viewBox="0 0 500 500" style="width: 215px;" xml:space="preserve" data-imageid="team-presentation-5-49" imageName="Team Presentation 5" class="illustrations_image">
<style type="text/css">
	.st0_team-presentation-5-49{fill:#FFFFFF;}
	.st1_team-presentation-5-49{fill:#093F68;}
	.st2_team-presentation-5-49{fill:#DFEAEF;}
	.st3_team-presentation-5-49{fill:#FFC9B0;}
	.st4_team-presentation-5-49{fill:#F56132;}
	.st5_team-presentation-5-49{fill:#68E1FD;}
	.st6_team-presentation-5-49{fill:#725858;}
</style>
<g id="board_team-presentation-5-49">
	<rect x="83.1" y="106.8" class="st0_team-presentation-5-49" width="218.6" height="122.9"/>
	<path class="st1_team-presentation-5-49" d="M301.6,231.6H83.1c-1,0-1.8-0.8-1.8-1.8l0,0V106.8c0-1,0.8-1.8,1.8-1.8h218.5c1,0,1.8,0.8,1.8,1.8v0v123&#10;&#9;&#9;C303.4,230.8,302.6,231.6,301.6,231.6z M84.9,227.9h214.9V108.6H84.9V227.9z"/>
	<path class="st2_team-presentation-5-49" d="M284,200h-82.4c-1,0-1.8-0.8-1.8-1.8v0v-45.3c0-1,0.8-1.8,1.8-1.8s1.8,0.8,1.8,1.8c0,0,0,0,0,0v43.4H284&#10;&#9;&#9;c1-0.1,1.9,0.7,1.9,1.7c0.1,1-0.7,1.9-1.7,1.9C284.2,200,284.1,200,284,200L284,200z"/>
	<path class="st2_team-presentation-5-49" d="M224.5,200h-14.6c-1,0-1.8-0.8-1.8-1.8v0v-13.1c0-1,0.8-1.8,1.8-1.8h14.6c1,0,1.8,0.8,1.8,1.8v13.1&#10;&#9;&#9;C226.3,199.2,225.5,200,224.5,200C224.5,200,224.5,200,224.5,200z M211.8,196.4h10.9v-9.4h-10.9V196.4z"/>
	<path class="st2_team-presentation-5-49" d="M249.1,200h-14.6c-1,0-1.8-0.8-1.8-1.8c0,0,0,0,0,0v-38c0-1,0.8-1.8,1.8-1.8c0,0,0,0,0,0h14.6&#10;&#9;&#9;c1,0,1.8,0.8,1.8,1.8v0v38C250.9,199.2,250.1,200,249.1,200L249.1,200z M236.4,196.4h10.9v-34.4h-10.9L236.4,196.4z"/>
	<path class="st2_team-presentation-5-49" d="M273.7,200h-14.6c-1,0-1.8-0.8-1.8-1.8c0,0,0,0,0,0v-26.3c0-1,0.8-1.8,1.8-1.8l0,0h14.6c1,0,1.8,0.8,1.8,1.8v0&#10;&#9;&#9;v26.3C275.6,199.2,274.8,200,273.7,200C273.8,200,273.7,200,273.7,200z M261,196.4h10.9v-22.7H261V196.4z"/>
	<path class="st2_team-presentation-5-49" d="M143,210.9c-24.9,0-45-20.2-45-45.1s20.2-45,45.1-45s45,20.2,45,45.1c0,7.5-1.9,14.8-5.4,21.4&#10;&#9;&#9;C174.8,201.8,159.6,210.9,143,210.9z M143,124.2c-22.9,0-41.6,18.6-41.6,41.5s18.6,41.6,41.5,41.6c22.9,0,41.6-18.6,41.6-41.5&#10;&#9;&#9;c0,0,0-0.1,0-0.1C184.5,142.8,165.9,124.2,143,124.2z"/>
	<path class="st2_team-presentation-5-49" d="M181.1,188.2c-0.3,0-0.6-0.1-0.9-0.2l-38.1-20.7c-0.6-0.3-1-0.9-1-1.6v-43.3c0-1,0.8-1.8,1.8-1.8l0,0&#10;&#9;&#9;c24.9,0,45.1,20.2,45.1,45.1c0,7.5-1.9,14.9-5.4,21.5C182.3,187.8,181.7,188.2,181.1,188.2L181.1,188.2z M144.8,164.6l35.5,19.3&#10;&#9;&#9;c10-20.7,1.4-45.5-19.3-55.5c-5.1-2.5-10.6-3.9-16.2-4.1V164.6z"/>
	<path class="st2_team-presentation-5-49" d="M142.1,183.9h-19.3c-1,0-1.8-0.8-1.8-1.8c0-1,0.8-1.8,1.8-1.8h19.3c1,0,1.8,0.8,1.8,1.8&#10;&#9;&#9;C143.9,183.1,143.1,183.9,142.1,183.9z"/>
	<path class="st2_team-presentation-5-49" d="M142.1,190.3h-19.3c-1,0-1.8-0.8-1.8-1.8c0-1,0.8-1.8,1.8-1.8c0,0,0,0,0,0h19.3c1,0,1.8,0.8,1.8,1.8&#10;&#9;&#9;C143.9,189.5,143.1,190.3,142.1,190.3z"/>
	<path class="st2_team-presentation-5-49" d="M173,151.5h-13.3c-1,0-1.8-0.8-1.8-1.8c0-1,0.8-1.8,1.8-1.8H173c1,0,1.8,0.8,1.8,1.8S174,151.5,173,151.5&#10;&#9;&#9;C173,151.5,173,151.5,173,151.5z"/>
	<path class="st2_team-presentation-5-49" d="M284,127.3h-24.8c-1,0-1.8-0.8-1.8-1.8s0.8-1.8,1.8-1.8c0,0,0,0,0,0H284c1,0,1.8,0.8,1.8,1.8&#10;&#9;&#9;S285,127.3,284,127.3C284,127.3,284,127.3,284,127.3z"/>
	<path class="st2_team-presentation-5-49" d="M284,139.8h-13c-1,0-1.8-0.8-1.8-1.8c0-1,0.8-1.8,1.8-1.8h13c1,0,1.8,0.8,1.8,1.8&#10;&#9;&#9;C285.8,139,285,139.8,284,139.8z"/>
</g>
<g id="character-1_team-presentation-5-49">
	<path class="st3_team-presentation-5-49" d="M309.5,190.2c0,0-5.8-6.8-6.5-9.3s-2.1-8.3-4.2-9.4s-6.2-0.3-4,6.8c0,0-8.1-15.6-12.1-12.3s-6.5,7.9-4.7,13.3&#10;&#9;&#9;s22,27.3,22,27.3L309.5,190.2z"/>
	<path class="st1_team-presentation-5-49" d="M299.9,208.3c-0.5,0-1-0.2-1.3-0.6c-2.1-2.3-20.4-22.3-22.3-27.9s0-11,5.2-15.3c0.9-0.7,2.1-1,3.2-0.8&#10;&#9;&#9;c2.8,0.6,5.9,4.4,8.3,7.9c0.3-0.5,0.7-1,1.2-1.4c1.6-1.2,3.8-1.4,5.5-0.4c2.3,1.3,3.6,5.3,4.8,9.6l0.2,0.9c0.4,1.4,3.9,5.9,6.2,8.6&#10;&#9;&#9;c0.5,0.6,0.6,1.4,0.2,2.1l-9.6,16.3c-0.3,0.5-0.8,0.8-1.4,0.9L299.9,208.3z M283.9,167.3c-2.5,1.9-6.1,5.9-4.3,11.3&#10;&#9;&#9;c1.2,3.4,12,16.1,19.9,24.8l7.7-13.1c-1.8-2.2-5.4-6.7-6.1-8.9l-0.3-0.9c-1.2-4.5-2.3-7-3.1-7.4c-0.4-0.3-1-0.3-1.5,0&#10;&#9;&#9;c-0.5,0.4-0.8,1.9,0,4.6c0.3,1-0.3,2-1.2,2.3c-0.8,0.3-1.7-0.1-2.1-0.9C290.3,173.8,286,167.8,283.9,167.3L283.9,167.3z"/>
	<path class="st4_team-presentation-5-49" d="M454.1,279.4h-88.6c-3.5,0-6.4-2.9-6.4-6.4v-43.8c0-9.9,8.1-18,18-18h58.7c13.7,0,24.7,11.1,24.7,24.7&#10;&#9;&#9;c0,0,0,0,0,0V273C460.5,276.5,457.7,279.4,454.1,279.4C454.1,279.4,454.1,279.4,454.1,279.4z"/>
	<path class="st1_team-presentation-5-49" d="M460.5,281.2H359.1c-1,0-1.8-0.8-1.8-1.8c0,0,0,0,0,0v-47.2c0-12.6,10.2-22.8,22.8-22.8h59.4&#10;&#9;&#9;c12.6,0,22.8,10.2,22.8,22.8v47.2C462.4,280.4,461.6,281.2,460.5,281.2C460.6,281.2,460.5,281.2,460.5,281.2z M360.9,277.6h97.8&#10;&#9;&#9;v-45.4c0-10.6-8.6-19.2-19.2-19.2l0,0h-59.4c-10.6,0-19.2,8.6-19.2,19.2V277.6z"/>
	<path class="st5_team-presentation-5-49 targetColor" d="M440.9,242.6v63.1h-81.8l-5.7-54.2c-37-12.2-59.9-49.4-59.9-49.4l14.2-15.2c25.6,24.4,57.8,41.3,57.8,41.3h61&#10;&#9;&#9;C434.4,228.1,440.9,234.6,440.9,242.6C440.9,242.5,440.9,242.5,440.9,242.6z" style="fill: rgb(104, 225, 253);"/>
	<path class="st1_team-presentation-5-49" d="M440.9,307.5h-81.8c-0.9,0-1.7-0.7-1.8-1.6l-5.6-53.1c-36.5-12.6-58.9-48.2-59.8-49.8&#10;&#9;&#9;c-0.4-0.7-0.3-1.6,0.2-2.2l14.2-15.2c0.3-0.4,0.8-0.6,1.3-0.6c0.5,0,1,0.2,1.3,0.5c23.6,22.5,53.3,38.8,57,40.8h60.6&#10;&#9;&#9;c9,0,16.2,7.3,16.3,16.2v63.1C442.7,306.6,441.9,307.5,440.9,307.5z M360.7,303.8h78.3v-61.3c0-6.9-5.7-12.6-12.6-12.6h-61&#10;&#9;&#9;c-0.3,0-0.6-0.1-0.9-0.2c-0.3-0.2-31.6-16.7-56.9-40.3l-12,12.8c4.2,6.3,25.9,36.8,58.2,47.5c0.7,0.2,1.2,0.8,1.2,1.5L360.7,303.8z&#10;&#9;&#9;"/>
	<polygon class="st0_team-presentation-5-49" points="374.8,228.1 392.1,293.8 409.8,228.1 &#9;"/>
	<path class="st1_team-presentation-5-49" d="M392.1,295.6c-0.8,0-1.5-0.6-1.8-1.4L373,228.6c-0.3-1,0.3-2,1.3-2.2c0.2,0,0.3-0.1,0.5-0.1h35.1&#10;&#9;&#9;c0.6,0,1.1,0.3,1.4,0.7c0.3,0.4,0.5,1,0.3,1.6l-17.7,65.7C393.6,295.1,392.9,295.6,392.1,295.6z M377.1,229.9l15,56.8l15.3-56.8&#10;&#9;&#9;L377.1,229.9z"/>
	<path class="st3_team-presentation-5-49" d="M395,236.5h-7.2c-1.8,0-3.2-1.4-3.2-3.2c0,0,0,0,0,0v-10.4l0,0h13.5l0,0v10.4&#10;&#9;&#9;C398.2,235.1,396.8,236.5,395,236.5z"/>
	<path class="st1_team-presentation-5-49" d="M392.4,238.4h-2c-4.2,0-7.6-3.4-7.6-7.6V223c0-1,0.8-1.8,1.8-1.8l0,0h13.5c1,0,1.8,0.8,1.8,1.8c0,0,0,0,0,0&#10;&#9;&#9;v7.8C400,235,396.6,238.3,392.4,238.4z M386.4,224.8v6c0,2.2,1.8,3.9,3.9,3.9h2c2.2,0,3.9-1.8,3.9-3.9l0,0v-6H386.4z"/>
	<path class="st6_team-presentation-5-49" d="M437.5,184.9c0.7-1.2,1.2-2.5,1.5-3.9c5.7-20.1,4.2-47.2-14.7-59.9c-17.1-11.6-41.8-9.2-59.7-0.1&#10;&#9;&#9;c-9,4.5-16.7,12.3-19.2,22c-1.3,5-1.1,10.3-0.8,15.4c0.5,7.8,1.5,15.6,3,23.3c0.1,1.1,0.5,2.2,1.2,3.2c1.9,2.4,11.4,0.4,14.4,0.5&#10;&#9;&#9;l26.3,0.8c10.1,0.3,20,1.9,30.1,1.9c5.3,0,12.6,2.7,16.9-1.9C436.9,185.8,437.2,185.4,437.5,184.9z"/>
	<path class="st1_team-presentation-5-49" d="M429.3,190.7c-1.8,0-3.6-0.2-5.3-0.4c-1.4-0.2-2.9-0.3-4.3-0.4h-0.4c-5.6,0-11.2-0.5-16.7-1&#10;&#9;&#9;c-4.3-0.4-8.8-0.8-13.2-0.9l-26.3-0.8c-0.7,0-2.1,0.1-3.6,0.3c-6,0.6-10.4,0.9-12.2-1.5c-0.8-1.2-1.3-2.6-1.5-4&#10;&#9;&#9;c-1.5-7.8-2.5-15.6-3-23.5c-0.4-6-0.4-11.1,0.9-16c2.4-9.5,9.8-18,20.1-23.2c17.4-8.8,43.2-12.1,61.5,0.2&#10;&#9;&#9;c19.1,12.9,21.5,40.4,15.4,62c-0.4,1.5-0.9,2.9-1.7,4.3c-0.4,0.6-0.8,1.2-1.3,1.7C435.4,190.1,432.4,190.7,429.3,190.7z&#10;&#9;&#9; M419.6,186.3c1.6,0,3.2,0.2,4.8,0.4c4.2,0.5,8.2,1,10.7-1.7c0.3-0.3,0.6-0.7,0.8-1.1l0,0c0.6-1.1,1-2.3,1.3-3.4&#10;&#9;&#9;c5.7-20.3,3.6-46.1-13.9-58c-17.1-11.6-41.4-8.3-57.9,0c-9.4,4.8-16.1,12.4-18.3,20.9c-1.1,4.5-1.1,9.2-0.8,14.9&#10;&#9;&#9;c0.5,7.8,1.5,15.5,3,23.1c0.1,0.9,0.4,1.7,0.8,2.4c0.9,0.9,6.8,0.3,9,0.1c1.4-0.2,2.7-0.3,4.1-0.3l26.3,0.8c4.5,0.1,9,0.5,13.4,0.9&#10;&#9;&#9;C408.4,185.8,414.1,186.3,419.6,186.3L419.6,186.3z"/>
	<ellipse class="st3_team-presentation-5-49" cx="430.2" cy="187.7" rx="13.2" ry="11.4"/>
	<path class="st1_team-presentation-5-49" d="M430.2,200.9c-8.3,0-15-5.9-15-13.2s6.7-13.2,15-13.2s15,5.9,15,13.2S438.5,200.9,430.2,200.9z M430.2,178.2&#10;&#9;&#9;c-6.3,0-11.4,4.3-11.4,9.5s5.1,9.5,11.4,9.5s11.4-4.3,11.4-9.5S436.4,178.2,430.2,178.2L430.2,178.2z"/>
	<ellipse class="st3_team-presentation-5-49" cx="353.4" cy="187.7" rx="13.2" ry="11.4"/>
	<path class="st1_team-presentation-5-49" d="M353.4,200.9c-8.3,0-15-5.9-15-13.2s6.7-13.2,15-13.2s15,5.9,15,13.2S361.6,200.9,353.4,200.9z M353.4,178.2&#10;&#9;&#9;c-6.3,0-11.4,4.3-11.4,9.5s5.1,9.5,11.4,9.5s11.4-4.3,11.4-9.5S359.6,178.2,353.4,178.2L353.4,178.2z"/>
	<path class="st3_team-presentation-5-49" d="M391.4,224.8c21.9,0,39.7-17.8,39.7-39.7c0,0,0,0,0,0c0.1-5.7-0.4-11.3-1.8-16.8c-1.8-7.1-6.5-11.5-11.1-16.9&#10;&#9;&#9;c-3.8-4.4-6.8-10.3-13.7-8.5c-3.5,1-6.6,3.3-10.1,4.5c-3.5,1.2-7.4,1.3-11,0.2c-4.8-1.5-9-5-14-5.2c-7.3-0.2-12.9,8.2-15.3,14.2&#10;&#9;&#9;c-3.9,9.6-2.7,18.6-2.7,28.5C351.7,206.9,369.4,224.7,391.4,224.8C391.4,224.8,391.4,224.8,391.4,224.8z"/>
	<path class="st1_team-presentation-5-49" d="M391.4,226.6c-22.9,0-41.5-18.6-41.6-41.6c0-1.9,0-3.9-0.1-5.7c-0.2-7.9-0.4-15.4,2.9-23.5&#10;&#9;&#9;c3-7.4,9-15.3,16.7-15.3h0.3c3.5,0.1,6.5,1.6,9.4,3.1c1.6,0.9,3.3,1.6,5,2.2c3.2,1,6.6,0.9,9.8-0.2c1.5-0.6,2.9-1.2,4.2-2&#10;&#9;&#9;c1.9-1.1,3.9-1.9,6-2.6c7-1.9,10.8,3,13.8,6.9c0.6,0.7,1.1,1.4,1.7,2.1s1.4,1.6,2.1,2.4c4,4.5,7.7,8.8,9.3,15.2&#10;&#9;&#9;c1.4,5.7,2,11.5,1.9,17.3C433,208,414.4,226.5,391.4,226.6z M369.4,144.1c-5.9,0-10.9,7-13.3,13.1c-3,7.4-2.8,14.5-2.6,22&#10;&#9;&#9;c0,1.9,0.1,3.8,0.1,5.8c0,20.9,17,37.9,37.9,37.9c20.9,0,37.9-17,37.9-37.9c0,0,0,0,0,0c0.1-5.5-0.4-11-1.7-16.4&#10;&#9;&#9;c-1.4-5.5-4.7-9.3-8.5-13.7c-0.7-0.8-1.4-1.6-2.2-2.5s-1.2-1.5-1.8-2.3c-3.3-4.3-5.6-6.8-10-5.7c-1.8,0.6-3.6,1.3-5.2,2.3&#10;&#9;&#9;c-1.5,0.8-3.1,1.6-4.7,2.2c-3.9,1.4-8.2,1.5-12.1,0.2c-1.9-0.7-3.8-1.5-5.6-2.4c-2.7-1.4-5.2-2.6-7.9-2.7L369.4,144.1z"/>
	<circle class="st1_team-presentation-5-49" cx="406.1" cy="179.2" r="3.7"/>
	<circle class="st1_team-presentation-5-49" cx="371.9" cy="179.2" r="3.7"/>
	<path class="st1_team-presentation-5-49" d="M388.2,196.3c-1.1,0-2.1-0.1-3.2-0.3c-0.8-0.2-1.5-0.7-1.8-1.5c-1.1-2.5,1.5-8.2,3.1-11.4&#10;&#9;&#9;c0.4-0.9,1.5-1.3,2.4-0.9c0.9,0.4,1.3,1.5,0.9,2.4c0,0,0,0.1-0.1,0.1c-1.4,2.5-2.4,5.1-3,7.8c1.6,0.2,3.1,0.1,4.7-0.1&#10;&#9;&#9;c1-0.1,1.9,0.6,2,1.6c0.1,0.9-0.5,1.8-1.4,2C390.7,196.2,389.5,196.3,388.2,196.3z M386.6,193L386.6,193z"/>
	<path class="st1_team-presentation-5-49" d="M397.4,169.7c-2,0-3.7-1.6-3.7-3.6s1.6-3.7,3.6-3.7l17.5-0.4c2,0,3.7,1.6,3.7,3.6c0,2-1.5,3.7-3.6,3.7&#10;&#9;&#9;c0,0,0,0,0,0L397.4,169.7L397.4,169.7z"/>
	<path class="st1_team-presentation-5-49" d="M379.5,171h-0.2l-17.5-1c-2-0.1-3.5-1.8-3.4-3.8c0.1-2,1.8-3.5,3.8-3.4l0,0l17.5,1c2,0.1,3.5,1.9,3.4,3.9&#10;&#9;&#9;C382.9,169.5,381.4,171,379.5,171L379.5,171z"/>
	<path class="st4_team-presentation-5-49" d="M395.5,245.8h-6.8c-0.9,0-1.6-0.7-1.6-1.6v-4.7c0-0.9,0.7-1.6,1.6-1.6h6.8c0.9,0,1.6,0.7,1.6,1.6v4.7&#10;&#9;&#9;C397.1,245,396.4,245.8,395.5,245.8z"/>
	<path class="st1_team-presentation-5-49" d="M394.2,247.6H390c-2.6,0-4.7-2.1-4.7-4.7l0,0v-2.1c0-2.6,2.1-4.8,4.7-4.8c0,0,0,0,0,0h4.2&#10;&#9;&#9;c2.6,0,4.7,2.1,4.7,4.7v2.1C399,245.4,396.8,247.6,394.2,247.6C394.2,247.6,394.2,247.6,394.2,247.6z M390,239.7&#10;&#9;&#9;c-0.6,0-1.1,0.5-1.1,1.1v0v2.1c0,0.6,0.5,1.1,1.1,1.1h4.2c0.6,0,1.1-0.5,1.1-1.1v0v-2.1c0-0.6-0.5-1.1-1.1-1.1l0,0H390z"/>
	<polygon class="st4_team-presentation-5-49" points="386.2,271.6 392.1,293.8 398.6,269.8 395,245.8 389.2,245.8 &#9;"/>
	<path class="st1_team-presentation-5-49" d="M392.1,295.6L392.1,295.6c-0.8,0-1.5-0.6-1.8-1.4l-5.9-22.1c-0.1-0.2-0.1-0.4,0-0.7l3-25.9&#10;&#9;&#9;c0.1-0.9,0.9-1.6,1.8-1.6h5.8c0.9,0,1.7,0.7,1.8,1.6l3.6,24c0.1,0.2,0.1,0.5,0,0.7l-6.5,24C393.7,295.1,392.9,295.6,392.1,295.6z&#10;&#9;&#9; M388.1,271.5l4,15.2l4.6-17.1l-3.3-22.1h-2.6L388.1,271.5z"/>
	<path class="st1_team-presentation-5-49" d="M418.8,307.5c-1,0-1.8-0.8-1.8-1.8v-54.2c0-1,0.8-1.8,1.8-1.8s1.8,0.8,1.8,1.8v54.2&#10;&#9;&#9;C420.6,306.7,419.8,307.5,418.8,307.5z"/>
	<path class="st0_team-presentation-5-49" d="M402.5,200.2h-23c0,0,2.3,15.1,12.8,14.4C404.3,213.9,402.5,200.2,402.5,200.2z"/>
	<path class="st1_team-presentation-5-49" d="M391.6,216.5c-11.3,0-13.8-15.3-13.9-16c-0.1-1,0.5-1.9,1.5-2.1c0.1,0,0.2,0,0.3,0h23c0.9,0,1.7,0.7,1.8,1.6&#10;&#9;&#9;c0,0.3,0.9,7.5-3,12.3c-2.2,2.6-5.4,4.1-8.8,4.2L391.6,216.5z M381.8,202.1c1,3.8,3.9,11.2,10.4,10.8c2.4,0,4.7-1,6.2-2.8&#10;&#9;&#9;c2-2.4,2.3-5.9,2.3-7.9L381.8,202.1z"/>
	<path class="st1_team-presentation-5-49" d="M295.2,189.9c-0.7,0-1.4-0.4-1.7-1.1c-1.6-3.5-1.8-7.5-0.6-11.2c0.4-0.9,1.4-1.4,2.4-1c0.9,0.4,1.4,1.4,1,2.4&#10;&#9;&#9;c-0.9,2.8-0.7,5.8,0.5,8.4c0.4,0.9,0,2-0.9,2.4l0,0C295.7,189.9,295.5,189.9,295.2,189.9z"/>
</g>
<g id="table_team-presentation-5-49">
	<rect x="42.6" y="264.5" class="st0_team-presentation-5-49" width="426.9" height="129"/>
	<path class="st1_team-presentation-5-49" d="M469.5,395.3H42.6c-1,0-1.8-0.8-1.8-1.8c0,0,0,0,0,0v-129c0-1,0.8-1.8,1.8-1.8c0,0,0,0,0,0h427&#10;&#9;&#9;c1,0,1.8,0.8,1.8,1.8l0,0v129C471.4,394.5,470.6,395.3,469.5,395.3C469.6,395.3,469.6,395.3,469.5,395.3z M44.4,391.7h423.3V266.3&#10;&#9;&#9;H44.4V391.7z"/>
	<rect x="375" y="294.5" class="st0_team-presentation-5-49" width="52.8" height="59.8"/>
	<path class="st2_team-presentation-5-49" d="M427.8,356.1H375c-1,0-1.8-0.8-1.8-1.8l0,0v-59.8c0-1,0.8-1.8,1.8-1.8c0,0,0,0,0,0h52.8c1,0,1.8,0.8,1.8,1.8&#10;&#9;&#9;c0,0,0,0,0,0v59.8C429.6,355.3,428.8,356.1,427.8,356.1z M376.8,352.4H426v-56.1h-49.2L376.8,352.4z"/>
	<rect x="388.5" y="287" class="st0_team-presentation-5-49" width="52.8" height="59.8"/>
	<path class="st2_team-presentation-5-49" d="M441.2,348.6h-52.8c-1,0-1.8-0.8-1.8-1.8l0,0V287c0-1,0.8-1.8,1.8-1.8l0,0h52.8c1,0,1.8,0.8,1.8,1.8l0,0v59.8&#10;&#9;&#9;C443.1,347.8,442.3,348.6,441.2,348.6C441.2,348.6,441.2,348.6,441.2,348.6z M390.2,345h49.1v-56.1h-49.1L390.2,345z"/>
	<path class="st2_team-presentation-5-49" d="M431.1,333.9h-32.5c-1,0-1.8-0.8-1.8-1.8s0.8-1.8,1.8-1.8h32.5c1,0,1.8,0.8,1.8,1.8S432.1,333.9,431.1,333.9z"/>
	<path class="st2_team-presentation-5-49" d="M431.1,323.6h-32.5c-1,0-1.8-0.8-1.8-1.8s0.8-1.8,1.8-1.8h32.5c1,0,1.8,0.8,1.8,1.8S432.1,323.6,431.1,323.6z"/>
	<path class="st2_team-presentation-5-49" d="M431.1,313.4h-32.5c-1,0-1.8-0.8-1.8-1.8s0.8-1.8,1.8-1.8h32.5c1,0,1.8,0.8,1.8,1.8S432.1,313.4,431.1,313.4z"/>
	<path class="st2_team-presentation-5-49" d="M431.1,303.1h-18.6c-1,0.1-1.9-0.7-1.9-1.7c-0.1-1,0.7-1.9,1.7-1.9c0.1,0,0.2,0,0.3,0h18.6&#10;&#9;&#9;c1-0.1,1.9,0.7,1.9,1.7c0.1,1-0.7,1.9-1.7,1.9C431.2,303.1,431.1,303.1,431.1,303.1z"/>
</g>
<g id="character-3_team-presentation-5-49">
	<ellipse class="st3_team-presentation-5-49" cx="83.1" cy="285.2" rx="12.6" ry="10.9"/>
	<path class="st1_team-presentation-5-49" d="M83.1,297.9c-8,0-14.4-5.7-14.4-12.7s6.5-12.7,14.4-12.7s14.4,5.7,14.4,12.7S91.1,297.9,83.1,297.9z&#10;&#9;&#9; M83.1,276.1c-6,0-10.8,4.1-10.8,9.1s4.8,9,10.8,9s10.8-4.1,10.8-9S89.1,276.1,83.1,276.1z"/>
	<path class="st3_team-presentation-5-49" d="M137.2,238.5c10.8,18.6,18.2,8.1,20.4,4.4v39.6c0,19.7-15.1,36.2-34.8,37.9v8.1c0,3.6-2.9,6.5-6.5,6.5&#10;&#9;&#9;s-6.5-2.9-6.5-6.5V321c-23.1-0.9-34.4-20.7-34.4-38.4l6-35.2C81.5,247.3,96.6,259.1,137.2,238.5z"/>
	<path class="st1_team-presentation-5-49" d="M116.4,336.9c-4.6,0-8.3-3.7-8.3-8.3v-5.9c-22.6-1.8-34.3-21.3-34.3-40.1c0-0.1,0-0.2,0-0.3l6-35.2&#10;&#9;&#9;c0.2-1,1.1-1.7,2.1-1.5c0.3,0.1,0.6,0.2,0.8,0.4c0,0,3.7,2.7,12.1,3c7.8,0.3,21.4-1.6,41.7-11.9c0.9-0.4,1.9-0.1,2.4,0.7&#10;&#9;&#9;c3.7,6.4,7.3,9.8,10.5,9.8l0,0c2.3,0,4.6-1.8,6.8-5.4c0.5-0.9,1.6-1.1,2.5-0.6c0.5,0.3,0.9,0.9,0.9,1.6v39.6&#10;&#9;&#9;c-0.1,20-14.9,36.9-34.8,39.5v6.5C124.6,333.2,120.9,336.9,116.4,336.9z M77.4,282.7c0.1,17.5,11.3,35.6,32.6,36.5&#10;&#9;&#9;c1,0.1,1.7,0.9,1.7,1.9v7.6c-0.1,2.6,1.9,4.8,4.5,4.9c2.6,0.1,4.8-1.9,4.9-4.5c0-0.1,0-0.3,0-0.4v-8.1c0-0.9,0.7-1.7,1.7-1.8&#10;&#9;&#9;c18.7-1.7,33-17.3,33.1-36.1v-34.4c-1.7,1.8-4.1,2.8-6.6,2.8c-4.3,0-8.5-3.4-12.7-10.1c-31.6,15.6-47.8,11.8-53.6,9.2L77.4,282.7z"/>
	<ellipse class="st3_team-presentation-5-49" cx="150.2" cy="283.5" rx="10" ry="10.9"/>
	<path class="st1_team-presentation-5-49" d="M150.2,296.2c-6.5,0-11.8-5.7-11.8-12.7s5.3-12.7,11.8-12.7s11.8,5.7,11.8,12.7S156.7,296.2,150.2,296.2z&#10;&#9;&#9; M150.2,274.5c-4.5,0-8.1,4.1-8.1,9s3.7,9.1,8.1,9.1s8.2-4.1,8.2-9.1S154.7,274.5,150.2,274.5z"/>
	<path class="st1_team-presentation-5-49" d="M97.9,395.3c-1,0-1.8-0.8-1.8-1.8c0,0,0,0,0,0v-51.9c0.1-1,0.9-1.8,1.9-1.7c0.9,0.1,1.6,0.8,1.7,1.7v51.9&#10;&#9;&#9;C99.7,394.5,98.9,395.3,97.9,395.3C97.9,395.3,97.9,395.3,97.9,395.3z"/>
	<path class="st5_team-presentation-5-49 targetColor" d="M89.4,319.2h49.2c8.7,0,21.4,8.3,25.9,19.6c8.8,22,9.2,54.7,9.2,54.7H76.7v-61.6&#10;&#9;&#9;C76.7,324.9,82.4,319.2,89.4,319.2z" style="fill: rgb(104, 225, 253);"/>
	<path class="st1_team-presentation-5-49" d="M173.8,395.3h-97c-1,0-1.8-0.8-1.8-1.8c0,0,0,0,0,0v-61.6c0-8,6.5-14.5,14.5-14.5h49.1&#10;&#9;&#9;c9.1,0,22.7,8.5,27.6,20.7c8.9,22.1,9.4,54,9.4,55.3c0,0.5-0.2,1-0.5,1.3C174.7,395.1,174.2,395.3,173.8,395.3z M78.5,391.7h93.4&#10;&#9;&#9;c-0.2-7.2-1.6-33.7-9.1-52.2c-4.2-10.5-16.3-18.4-24.2-18.4H89.4c-6,0-10.9,4.9-10.9,10.9L78.5,391.7z"/>
	<path class="st6_team-presentation-5-49" d="M148.8,284c0.1-1.5,0.3-3.1,0.4-4.6c0.4-4.4-0.2-16,3.2-19c1.5-1.3,4.3-1.1,6-2.3c2.4-1.6,3.6-4.5,4.1-7.2&#10;&#9;&#9;c1.2-6.4-0.4-12.9-4.4-18c-3.1-4.2-7.5-7.2-12.4-8.8c-1.5-0.4-13.9-0.5-13.6,0.1c-2.3-5.5-7.5-9.2-13-11.4&#10;&#9;&#9;c-21.3-8.6-42.5,0.6-51.2,21.7c-5.5,13.4-4.4,88.2-4.4,88.2h84C147.4,322.5,147.6,296.7,148.8,284z"/>
	<path class="st1_team-presentation-5-49" d="M147.3,324.2h-84c-1,0-1.8-0.8-1.8-1.8c0-3.1-1-75.4,4.6-88.9c9.1-22,31.6-31.5,53.5-22.7&#10;&#9;&#9;c6.3,2.5,11,6.4,13.4,11.1c4.4-0.6,13,0.2,13.1,0.2c5.3,1.7,10,5,13.4,9.5c4.3,5.5,6,12.6,4.7,19.5c-0.8,3.8-2.4,6.7-4.8,8.4&#10;&#9;&#9;c-1.1,0.7-2.3,1.1-3.6,1.3c-0.8,0.1-1.6,0.4-2.2,0.8c-2,1.8-2.2,9.5-2.4,13.7c-0.1,1.6-0.1,3.1-0.2,4.2c-0.1,1.5-0.3,3.1-0.4,4.6&#10;&#9;&#9;l0,0c-1.1,12.6-1.4,38.1-1.4,38.3C149.1,323.4,148.3,324.2,147.3,324.2z M65.1,320.6h80.4c0.1-6.1,0.5-26.1,1.4-36.8&#10;&#9;&#9;c0.1-1.5,0.3-3.1,0.4-4.7c0.1-1,0.1-2.3,0.2-3.9c0.2-7.4,0.6-13.7,3.6-16.3c1.1-0.9,2.5-1.4,3.9-1.6c0.8-0.1,1.6-0.4,2.3-0.8&#10;&#9;&#9;c2.1-1.4,3-4.1,3.4-6.1c1.1-5.9-0.4-11.9-4.1-16.6c-2.9-3.8-6.9-6.7-11.5-8.2c-4.1-0.3-8.2-0.3-12.2-0.1l-0.2,0.1&#10;&#9;&#9;c-0.9,0.4-2-0.1-2.4-1c0,0,0,0,0,0l0,0c-1.8-4.4-6.1-8.1-12-10.5c-20.3-8.2-40.4,0.3-48.8,20.7C64.6,246.6,65,309.2,65.1,320.6z"/>
	<path class="st1_team-presentation-5-49" d="M137.3,393.5H43.7l0,0v-54.1c0-5.1,4.1-9.2,9.2-9.2h0h70.6c7.7,0,13.9,6.2,13.9,13.9V393.5L137.3,393.5z"/>
	<path class="st1_team-presentation-5-49" d="M137.3,395.3H43.7c-1,0-1.8-0.8-1.8-1.8c0,0,0,0,0,0v-46.6c0-10.2,8.3-18.5,18.5-18.5h60.3&#10;&#9;&#9;c10.2,0,18.5,8.3,18.5,18.5v46.6C139.1,394.5,138.3,395.3,137.3,395.3z M45.5,391.7h90v-44.8c0-8.2-6.7-14.9-14.9-14.9H60.4&#10;&#9;&#9;c-8.2,0-14.9,6.7-14.9,14.9L45.5,391.7z"/>
	<path class="st4_team-presentation-5-49" d="M125,393.5H31.3l0,0v-46.2c0-9.4,7.6-17.1,17.1-17.1h59.5c9.4,0,17.1,7.6,17.1,17.1&#10;&#9;&#9;C125,347.3,125,393.5,125,393.5z"/>
	<path class="st1_team-presentation-5-49" d="M125,395.3H31.3c-1,0-1.8-0.8-1.8-1.8l0,0v-46.6c0-10.2,8.3-18.5,18.5-18.5h60.3c10.2,0,18.5,8.3,18.5,18.5&#10;&#9;&#9;v46.6C126.8,394.5,126,395.3,125,395.3z M33.2,391.7h90v-44.8c0-8.2-6.7-14.9-14.9-14.9H48c-8.2,0-14.9,6.7-14.9,14.9L33.2,391.7z"/>
	<path class="st1_team-presentation-5-49" d="M147.2,394.1c-1,0-1.8-0.8-1.8-1.8c0,0,0,0,0,0v-53.4c0-1,0.8-1.8,1.8-1.8c1,0,1.8,0.8,1.8,1.8v53.4&#10;&#9;&#9;C149,393.3,148.2,394.1,147.2,394.1z"/>
</g>
<g id="character-2_team-presentation-5-49">
	<ellipse class="st3_team-presentation-5-49" cx="237.6" cy="278.8" rx="12.6" ry="10.9"/>
	<path class="st1_team-presentation-5-49" d="M237.6,291.5c-8,0-14.4-5.7-14.4-12.7s6.5-12.7,14.4-12.7s14.4,5.7,14.4,12.7S245.5,291.5,237.6,291.5z&#10;&#9;&#9; M237.6,269.8c-6,0-10.8,4.1-10.8,9.1s4.8,9.1,10.8,9.1s10.8-4.1,10.8-9.1S243.5,269.8,237.6,269.8z"/>
	<path class="st3_team-presentation-5-49" d="M291.6,232.2c10.8,18.6,18.2,8.1,20.4,4.4v39.6c0,19.7-15.1,36.2-34.8,37.9v8.1c0,3.6-2.9,6.5-6.5,6.5&#10;&#9;&#9;s-6.5-2.9-6.5-6.5v-7.6c-23.1-0.9-34.4-20.7-34.4-38.4l6-35.2C236,241,251.1,252.7,291.6,232.2z"/>
	<path class="st1_team-presentation-5-49" d="M270.8,330.6c-4.6,0-8.3-3.7-8.3-8.3v-5.9c-22.6-1.8-34.4-21.3-34.4-40.1c0-0.1,0-0.2,0-0.3l6-35.3&#10;&#9;&#9;c0.1-0.6,0.5-1.2,1.1-1.4c0.6-0.2,1.3-0.1,1.8,0.3c0,0,3.7,2.7,12,3c7.8,0.2,21.4-1.6,41.7-11.9c0.9-0.4,1.9-0.1,2.4,0.7&#10;&#9;&#9;c3.7,6.4,7.3,9.8,10.5,9.8l0,0c2.3,0,4.6-1.8,6.8-5.4c0.5-0.9,1.6-1.1,2.5-0.6c0.5,0.3,0.9,0.9,0.9,1.5v39.6&#10;&#9;&#9;c-0.1,20-14.9,36.9-34.8,39.5v6.5C279.1,326.8,275.4,330.5,270.8,330.6z M231.8,276.4c0.1,17.5,11.3,35.6,32.6,36.5&#10;&#9;&#9;c1,0,1.8,0.8,1.8,1.8v7.6c0,2.6,2.1,4.7,4.7,4.7c2.6,0,4.7-2.1,4.7-4.7c0,0,0,0,0,0v-8.1c0-0.9,0.7-1.7,1.7-1.8&#10;&#9;&#9;c18.7-1.7,33-17.4,33.1-36.1v-34.4c-1.7,1.8-4.1,2.8-6.6,2.9c-4.3,0-8.5-3.4-12.7-10.1c-31.5,15.6-47.9,11.8-53.6,9.2L231.8,276.4z&#10;&#9;&#9;"/>
	<ellipse class="st3_team-presentation-5-49" cx="304.7" cy="277.2" rx="10" ry="10.9"/>
	<path class="st1_team-presentation-5-49" d="M304.7,289.9c-6.5,0-11.8-5.7-11.8-12.7s5.3-12.7,11.8-12.7s11.8,5.7,11.8,12.7S311.2,289.9,304.7,289.9z&#10;&#9;&#9; M304.7,268.1c-4.5,0-8.2,4.1-8.2,9.1s3.7,9,8.2,9s8.1-4.1,8.1-9S309.2,268.1,304.7,268.1z"/>
	<path class="st1_team-presentation-5-49" d="M252.3,395.3c-1,0-1.8-0.8-1.8-1.8c0,0,0,0,0,0v-51.9c0-1,0.8-1.8,1.8-1.8c1,0,1.8,0.8,1.8,1.8v51.9&#10;&#9;&#9;C254.1,394.5,253.3,395.3,252.3,395.3z"/>
	<path class="st5_team-presentation-5-49 targetColor" d="M243.9,319.2h49.2c8.7,0,21.4,8.3,25.9,19.6c8.8,22,9.2,54.7,9.2,54.7h-97.1v-61.6&#10;&#9;&#9;C231.2,324.9,236.8,319.2,243.9,319.2z" style="fill: rgb(104, 225, 253);"/>
	<path class="st1_team-presentation-5-49" d="M328.2,395.3h-97.1c-1,0-1.8-0.8-1.8-1.8l0,0v-61.6c0-8,6.5-14.5,14.5-14.5h49.2c9.1,0,22.7,8.5,27.6,20.7&#10;&#9;&#9;c8.9,22.1,9.4,54,9.4,55.3c0,0.5-0.2,1-0.5,1.3C329.2,395.1,328.7,395.3,328.2,395.3z M233,391.7h93.4c-0.2-7.2-1.6-33.7-9.1-52.2&#10;&#9;&#9;c-4.3-10.5-16.3-18.4-24.2-18.4h-49.2c-6,0-10.9,4.9-10.9,10.9V391.7z"/>
	<path class="st6_team-presentation-5-49" d="M306.7,278.4v-0.1c1.6-7.8,1.4-15.9,1.2-23.8c9.6-4,15.4-15.2,14-25.6s-9.4-19.2-19.2-22.9&#10;&#9;&#9;c-0.7,4.1-3.2,7.7-6.7,9.8c-0.9,0.6-9,3.1-9.5,1.9c-2.3-5.5-7.5-9.2-13-11.4c-21.3-8.6-42.5,0.6-51.2,21.7&#10;&#9;&#9;c-3.7,8.9-4.9,23.4-3.6,32.8c1.7,12.3,6.5,24.9,15.5,33.7c12.5,12.2,32.1,15.4,48.8,10.4c4.4-1.2,8.6-3.2,12.2-6&#10;&#9;&#9;C301.5,293.8,305.1,286.1,306.7,278.4z"/>
	<path class="st1_team-presentation-5-49" d="M267.4,308.8c-13.1,0-25.7-4.6-34.5-13.2c-8.3-8.1-14-20.5-16-34.7c-1.3-9.1-0.2-24.2,3.7-33.7&#10;&#9;&#9;c9.1-22,31.6-31.5,53.5-22.6c6.5,2.6,11.3,6.7,13.7,11.6c2.5-0.4,5-1,7.3-1.9c3.1-1.9,5.2-5,5.8-8.5c0.1-1,1.1-1.7,2.1-1.5&#10;&#9;&#9;c0.1,0,0.2,0,0.4,0.1c10.6,3.9,18.8,13.8,20.3,24.3c1.5,11-4.4,22.4-13.9,27c0.2,7.6,0.3,15.4-1.2,23.1v0.1&#10;&#9;&#9;c-1.4,6.4-4.5,15.3-12.1,21.4c-3.8,2.9-8.2,5.1-12.9,6.3C278.3,308,272.9,308.8,267.4,308.8z M257.4,204.8&#10;&#9;&#9;c-14.5,0-27.2,8.6-33.5,23.8c-3.7,8.9-4.6,23.2-3.4,31.8c1.9,13.5,7.2,25,14.9,32.6c11.5,11.2,29.9,15.1,47,10&#10;&#9;&#9;c4.2-1.1,8.2-3.1,11.6-5.7c6.7-5.4,9.6-13.4,10.8-19.3V278c1.6-7.6,1.4-15.7,1.1-23.4c0-0.8,0.4-1.4,1.1-1.7&#10;&#9;&#9;c8.7-3.6,14.2-13.8,12.9-23.6c-1.2-8.7-7.6-16.7-16.1-20.6c-1.2,3.7-3.7,6.9-7.1,8.9c-0.9,0.6-8.3,3.1-10.7,2.3&#10;&#9;&#9;c-0.6-0.2-1.2-0.7-1.4-1.3c-1.8-4.3-6.1-8.1-12-10.4C267.8,205.9,262.7,204.9,257.4,204.8L257.4,204.8z"/>
	<path class="st1_team-presentation-5-49" d="M291.8,393.5h-93.6l0,0v-54.1c0-5.1,4.1-9.2,9.2-9.2h0h68.6c8.8,0,15.9,7.1,15.9,15.9l0,0L291.8,393.5&#10;&#9;&#9;L291.8,393.5z"/>
	<path class="st1_team-presentation-5-49" d="M291.8,395.3h-93.6c-1,0-1.8-0.8-1.8-1.8l0,0v-46.6c0-10.2,8.3-18.5,18.5-18.5h60.3c10.2,0,18.5,8.3,18.5,18.5&#10;&#9;&#9;v46.6C293.6,394.5,292.8,395.3,291.8,395.3C291.8,395.3,291.8,395.3,291.8,395.3z M200,391.7h90v-44.8c0-8.2-6.7-14.9-14.9-14.9&#10;&#9;&#9;h-60.3c-8.2,0-14.8,6.7-14.8,14.9V391.7z"/>
	<path class="st4_team-presentation-5-49" d="M279.4,393.5h-93.6l0,0v-46.4c0-9.3,7.5-16.9,16.9-16.9l0,0h59.9c9.3,0,16.8,7.5,16.8,16.9l0,0V393.5&#10;&#9;&#9;L279.4,393.5z"/>
	<path class="st1_team-presentation-5-49" d="M279.4,395.3h-93.6c-1,0-1.8-0.8-1.8-1.8c0,0,0,0,0,0v-46.6c0-10.2,8.3-18.5,18.5-18.5h60.3&#10;&#9;&#9;c10.2,0,18.5,8.3,18.5,18.5v46.6C281.2,394.5,280.4,395.3,279.4,395.3z M187.6,391.7h90v-44.8c0-8.2-6.7-14.9-14.9-14.9h-60.3&#10;&#9;&#9;c-8.2,0-14.9,6.7-14.9,14.9L187.6,391.7z"/>
	<path class="st1_team-presentation-5-49" d="M301.6,394.1c-1,0-1.8-0.8-1.8-1.8l0,0v-53.4c0-1,0.8-1.8,1.8-1.8s1.8,0.8,1.8,1.8l0,0v53.4&#10;&#9;&#9;C303.5,393.2,302.7,394.1,301.6,394.1C301.7,394.1,301.7,394.1,301.6,394.1z"/>
</g>
</svg>