<svg id="_0080_market_analysis" xmlns="http://www.w3.org/2000/svg" xmlns:xlink="http://www.w3.org/1999/xlink" viewBox="0 0 500 500" data-imageid="market-analysis-37" imageName="Market Analysis" class="illustrations_image" style="width: 215px;"><defs><style>.cls-1_market-analysis-37{fill:url(#linear-gradient);}.cls-1_market-analysis-37,.cls-2_market-analysis-37{opacity:.08;}.cls-3_market-analysis-37,.cls-4_market-analysis-37,.cls-5_market-analysis-37{fill:#fff;}.cls-6_market-analysis-37{fill:#f4a28c;}.cls-7_market-analysis-37{opacity:.03;}.cls-7_market-analysis-37,.cls-8_market-analysis-37,.cls-2_market-analysis-37{fill:#000001;}.cls-4_market-analysis-37{opacity:.19;}.cls-9_market-analysis-37{fill:#e6e6e6;}.cls-8_market-analysis-37{opacity:.12;}.cls-10_market-analysis-37{fill:#ce8172;opacity:.31;}.cls-11_market-analysis-37{opacity:.58;}.cls-11_market-analysis-37,.cls-12_market-analysis-37,.cls-13_market-analysis-37{fill:#68e1fd;}.cls-5_market-analysis-37{opacity:.46;}.cls-14_market-analysis-37{fill:#24285b;}.cls-12_market-analysis-37{opacity:.73;}.cls-15_market-analysis-37{fill:#ffd200;}</style><linearGradient id="linear-gradient-market-analysis-37" x1="349.68" y1="190.46" x2="227.32" y2="184.24" gradientUnits="userSpaceOnUse"><stop offset="0" stop-color="#e6e6e6" stop-opacity="0"/><stop offset="1" stop-color="#000001"/></linearGradient></defs><g id="checklist_market-analysis-37"><polygon class="cls-9_market-analysis-37" points="29.12 150.24 29.12 178.82 47.59 178.82 51.63 190.19 56.4 178.82 74.86 178.82 74.86 150.24 29.12 150.24"/><path class="cls-8_market-analysis-37" d="m49.68,170.91s-.04,0-.06,0c-.42-.02-.81-.22-1.07-.55l-4.83-6.21c-.48-.62-.37-1.52.25-2,.62-.49,1.52-.37,2,.25l3.8,4.88,9.36-10.11c.53-.58,1.44-.62,2.02-.08.58.54.61,1.44.08,2.02l-10.51,11.35c-.27.29-.65.46-1.05.46Z"/></g><g id="screen_market-analysis-37"><rect class="cls-9_market-analysis-37" x="93.11" y="47.76" width="355.97" height="317.94"/><circle class="cls-14_market-analysis-37" cx="121.83" cy="75.64" r="6.84"/><circle class="cls-13_market-analysis-37 targetColor" cx="142.2" cy="75.64" r="6.84" style="fill: rgb(104, 225, 253);"/><circle class="cls-15_market-analysis-37" cx="161.38" cy="75.64" r="6.84"/><rect class="cls-3_market-analysis-37" x="203.58" y="318.01" width="112.4" height="28"/><rect class="cls-13_market-analysis-37 targetColor" x="277.2" y="318.01" width="38.78" height="28" style="fill: rgb(104, 225, 253);"/><rect class="cls-13_market-analysis-37 targetColor" x="241.98" y="265.15" width="17.78" height="28.14" style="fill: rgb(104, 225, 253);"/><rect class="cls-13_market-analysis-37 targetColor" x="216.54" y="281.74" width="17.78" height="11.54" style="fill: rgb(104, 225, 253);"/><rect class="cls-13_market-analysis-37 targetColor" x="266.52" y="240.35" width="17.78" height="52.94" style="fill: rgb(104, 225, 253);"/><rect class="cls-13_market-analysis-37 targetColor" x="293.36" y="209.9" width="17.78" height="83.38" style="fill: rgb(104, 225, 253);"/><rect class="cls-2_market-analysis-37" x="241.98" y="265.15" width="17.78" height="28.14"/><rect class="cls-2_market-analysis-37" x="293.36" y="209.9" width="17.78" height="83.38"/><rect class="cls-3_market-analysis-37" x="234.33" y="68.8" width="172.97" height="13.69"/><path class="cls-2_market-analysis-37" d="m127.66,167.48s7.18,2.02,6.77,13.41c-.1,2.85-.55,5.4-1.17,7.62-2.78,10.01-3.77,20.44-2.29,30.72l.09.64,67.51,66.55,14.28-76.54,1.28-26.02s11.27-1.89,11.66,6.95c.39,8.84-3.11,26.73-3.11,26.73l4.83,2.32s10.44,80.5-14.89,90.22c-12.95,4.97-26.35,2.72-37.01,3.6-13.82,1.14-19.55,18.15-9.38,27.57,5.66,5.24,11.34,13.32,10.94,24.43h-84.76l-5-49.38,28.16-124.4,12.1-24.44Z"/><rect class="cls-2_market-analysis-37" x="114.99" y="102.84" width="293.44" height="31.73"/></g><g id="person_market-analysis-37"><ellipse class="cls-7_market-analysis-37" cx="125.58" cy="439.33" rx="106.76" ry="22.08"/><path class="cls-13_market-analysis-37 targetColor" d="m162.45,278.29l30.44,21.33c12,8.41,28.54.06,28.9-14.59l1.59-64.16h-14.66l-6.35,49.99s-11.02-40.7-58.45-59.2c-47.44-18.5-43.38,25.65,18.54,66.63Z" style="fill: rgb(104, 225, 253);"/><path class="cls-5_market-analysis-37" d="m162.45,278.29l30.44,21.33c12,8.41,28.54.06,28.9-14.59l1.59-64.16h-14.66l-6.35,49.99s-11.02-40.7-58.45-59.2c-47.44-18.5-43.38,25.65,18.54,66.63Z"/><path class="cls-6_market-analysis-37" d="m129.6,178.43s1.12,7.54.15,12.67c-.39,2.08-2.43,3.46-4.5,3.04-2.57-.52-5.9-1.98-6.99-5.95l-2.68-6.51s-1.54-4.14,2.57-7.49c4.1-3.35,11-.39,11.45,4.24Z"/><polygon class="cls-6_market-analysis-37" points="117.05 183.5 111.74 207.92 125.41 209.89 123.78 191.33 117.05 183.5"/><path class="cls-14_market-analysis-37" d="m114.96,187.64h0c.02.33.26.6.59.66,1.17.21,3.9.34,5.56-2.58,2.16-3.8-.43-6.97-.43-6.97,3.28.4,5.73.26,7.05.11.79-.09,1.57-.27,2.29-.61l1.61-5.83s2.79-5.9-.65-6.94c-3.44-1.04-4.8,2.89-7.68.27s-3.56-3.62-6.31-1.96c-2.75,1.66.59,3.72-4.03,3.95s-4.62,2.14-4.55,4.24c.02.53.41,1.19.99,1.89,3.24,3.92,5.33,8.67,5.57,13.75Z"/><path class="cls-6_market-analysis-37" d="m121.9,185.44s-.24-2.93-2.42-2.57c-2.19.36-1.87,4.59,1.14,4.8l1.28-2.24Z"/><polygon class="cls-1_market-analysis-37" points="217.24 178.21 354.8 151.06 354.8 230.39 217.24 202.91 217.24 178.21"/><path class="cls-6_market-analysis-37" d="m130.06,183.22l2.3,2.8c.57.69.22,1.74-.65,1.96l-2.88.73,1.22-5.49Z"/><path class="cls-10_market-analysis-37" d="m123.95,193.8s-1.76-.23-5-2.98c0,0-.28,4.98,5.53,8.43l-.52-5.45Z"/><path class="cls-13_market-analysis-37 targetColor" d="m58.41,232.2c1.72-15.13,14.48-26.61,29.71-26.88,21.5-.39,57.6,1.34,76.56,15.68,28.11,21.26-27.62,105.73-27.62,105.73l-52.79-3.52s-30.15-53.17-25.86-91.01Z" style="fill: rgb(104, 225, 253);"/><rect class="cls-15_market-analysis-37" x="103.62" y="249.28" width="41.7" height="51.8" transform="translate(34.28 -13.06) rotate(6.96)"/><path class="cls-2_market-analysis-37" d="m98.06,221s7.14,25.22-4.3,42.81c-11.44,17.6-8.02,30.36,3.25,30.36s33.73-13.2,33.73-13.2l.85,1.69c2.66,5.27,1.56,11.66-2.71,15.74l-27.17,25.97-17.45-1.16s-17.08-31.81-19.64-45.82,33.42-56.39,33.42-56.39Z"/><path class="cls-13_market-analysis-37 targetColor" d="m96.98,236.49c8.38-16.71-8.69-34.75-25.93-27.53-7.77,3.26-15.03,8.66-19.56,17.52-14.08,27.57-44.58,62.77-19.36,80.36,25.22,17.6,86.82-12.32,86.82-12.32l-4.21-14.05s-45.06,15.22-60.31,5.25c0,0,27.62-19.45,42.56-49.24Z" style="fill: rgb(104, 225, 253);"/><path class="cls-5_market-analysis-37" d="m96.98,236.49c8.38-16.71-8.69-34.75-25.93-27.53-7.77,3.26-15.03,8.66-19.56,17.52-14.08,27.57-44.58,62.77-19.36,80.36,25.22,17.6,86.82-12.32,86.82-12.32l-4.21-14.05s-45.06,15.22-60.31,5.25c0,0,27.62-19.45,42.56-49.24Z"/><path class="cls-6_market-analysis-37" d="m115.77,283.95s9.86-7.37,14.97-2.97c5.11,4.4-12.17,12.31-12.17,12.31l-2.8-9.34Z"/><path class="cls-14_market-analysis-37" d="m84.27,323.21l-27.17,107.88,12.56.35,27.1-63.12c7.65-17.83,21.44-32.33,38.85-40.87l1.46-.71-52.79-3.52Z"/><path class="cls-14_market-analysis-37" d="m137.06,326.73l11.38,18.91c7.76,12.89,9.7,28.47,5.35,42.87l-12.97,42.93h-11.99l6.02-45.72c1.39-10.56-2.23-21.16-9.78-28.66l-19.88-19.76,31.87-10.56Z"/><rect class="cls-15_market-analysis-37" x="215.37" y="198.94" width="3.73" height="21.93"/><rect class="cls-2_market-analysis-37" x="215.37" y="198.94" width="3.73" height="21.93"/><ellipse class="cls-15_market-analysis-37" cx="217.24" cy="190.56" rx="8.39" ry="12.35"/><ellipse class="cls-5_market-analysis-37" cx="217.24" cy="190.56" rx="4.55" ry="6.69"/><path class="cls-13_market-analysis-37 targetColor" d="m67.07,431.26s1.12,5.48,5.77,6.55c4.65,1.08,5.22,5.85.82,6.44-4.4.59-14.54-6.42-14.54-6.42l1.28-6.75,6.66.17Z" style="fill: rgb(104, 225, 253);"/><path class="cls-13_market-analysis-37 targetColor" d="m138.58,431.26s1.12,5.48,5.77,6.55c4.65,1.08,5.22,5.85.82,6.44-4.4.59-14.54-6.42-14.54-6.42l1.28-6.75,6.66.17Z" style="fill: rgb(104, 225, 253);"/><path class="cls-6_market-analysis-37" d="m211.66,220.87s-1.32-9.04,6.16-10.98c7.48-1.94,5.57,10.98,5.57,10.98h-11.73Z"/></g><g id="panel_market-analysis-37"><rect class="cls-14_market-analysis-37" x="330.96" y="151.06" width="150.22" height="241.18"/><path class="cls-9_market-analysis-37" d="m406.07,265.36c-24.54,0-44.5-19.96-44.5-44.5s19.96-44.5,44.5-44.5,44.5,19.96,44.5,44.5-19.96,44.5-44.5,44.5Zm0-79.95c-19.55,0-35.45,15.9-35.45,35.45s15.9,35.45,35.45,35.45,35.45-15.9,35.45-35.45-15.9-35.45-35.45-35.45Z"/><path class="cls-3_market-analysis-37" d="m406.07,265.36c-10.89,0-21.38-3.98-29.52-11.2l6-6.76c6.49,5.75,14.84,8.92,23.52,8.92v9.04Z"/><path class="cls-13_market-analysis-37 targetColor" d="m450.57,220.87h-9.04c0-19.55-15.9-35.45-35.45-35.45v-9.04c24.54,0,44.5,19.96,44.5,44.5Z" style="fill: rgb(104, 225, 253);"/><path class="cls-15_market-analysis-37" d="m406.07,265.36v-9.04c19.55,0,35.45-15.9,35.45-35.45h9.04c0,24.54-19.96,44.5-44.5,44.5Z"/><path class="cls-3_market-analysis-37" d="m407.18,203.56c.9,0,1.17.31,1.17,1.21v1.91c3.58.51,5.65,2.3,7.16,5.41.47.93.27,1.44-.78,1.91l-1.91.86c-.9.43-1.32.23-1.83-.7-1.05-2.02-2.34-3-4.98-3-3.31,0-4.83.97-4.83,3.19,0,1.44,1.32,2.34,2.69,2.61.66.16,1.6.31,2.8.43,2.18.2,3.27.35,5.18,1.01.97.35,1.71.74,2.3,1.25,1.09,1.01,2.06,2.96,2.06,5.45,0,4.24-2.84,7.12-7.87,7.86v2.02c0,.9-.27,1.21-1.17,1.21h-2.14c-.9,0-1.21-.31-1.21-1.21v-1.99c-3.89-.51-6.5-2.49-7.79-5.99-.31-.86,0-1.44.9-1.79l1.91-.7c.97-.35,1.4-.12,1.83.86.86,2.18,2.61,3.27,5.26,3.27,3.58,0,5.37-1.13,5.37-3.43,0-1.21-.55-1.95-1.67-2.41-1.13-.43-2.1-.58-3.85-.74-2.14-.19-3.35-.43-5.22-1.13-.93-.35-1.67-.78-2.26-1.29-1.17-1.05-2.1-2.92-2.1-5.29,0-4.2,2.65-7.01,7.63-7.67v-1.91c0-.9.31-1.21,1.21-1.21h2.14Z"/><rect class="cls-3_market-analysis-37" x="381.76" y="283.27" width="51.07" height="12.44"/><rect class="cls-4_market-analysis-37" x="381.76" y="308.15" width="51.07" height="12.44"/><rect class="cls-13_market-analysis-37 targetColor" x="366.29" y="335.5" width="84.28" height="25.7" style="fill: rgb(104, 225, 253);"/></g><g id="plant_market-analysis-37"><path class="cls-11_market-analysis-37 targetColor" d="m182.1,424.5s-11.94-3.26-14.53-14.37c0,0,18.49-3.74,19.02,15.35l-4.49-.98Z" style="fill: rgb(104, 225, 253);"/><path class="cls-12_market-analysis-37 targetColor" d="m183.56,423.31s-8.34-13.18-1-25.51c0,0,14.06,8.93,7.81,25.54l-6.81-.03Z" style="fill: rgb(104, 225, 253);"/><path class="cls-13_market-analysis-37 targetColor" d="m185.71,423.32s4.41-13.92,17.73-16.56c0,0,2.5,9.04-8.62,16.6l-9.1-.04Z" style="fill: rgb(104, 225, 253);"/><polygon class="cls-14_market-analysis-37" points="177.05 423.01 179.47 439.56 194.71 439.63 196.96 423.09 177.05 423.01"/></g></svg>